# xmcd
# 
# Track frame offsets:
#     150
#     17986
#     32025
#     52655
#     65321
#     82093
#     99246
#     110494
#     124101
#     142716
#     153457
#     166645
#     184247
#     205337
# 
# Disc length: 3027
# 
# Revision: 1
# Processed by: cddbd v1.5.2PL0 Copyright (c) Steve Scherf et al.
# Submitted via: fre:ac v1.1beta1
# 
DISCID=ae0bd10e
DTITLE=Изумруд - СОЧный альбом
DYEAR=2014
DGENRE=
TTITLE0=Жуки жгут жок
TTITLE1=Пролетарская
TTITLE2=Вестерн
TTITLE3=Криминальное чтиво
TTITLE4=КаверZа
TTITLE5=Бах-dance
TTITLE6=Петрушка
TTITLE7=King and Queen
TTITLE8=Замерзал ковбой
TTITLE9=Траектория полета
TTITLE10=Скотч
TTITLE11=Dance of Death
TTITLE12=Веселый Элвич
TTITLE13=Эй, ухнем
EXTD=
EXTT0=
EXTT1=
EXTT2=
EXTT3=
EXTT4=
EXTT5=
EXTT6=
EXTT7=
EXTT8=
EXTT9=
EXTT10=
EXTT11=
EXTT12=
EXTT13=
PLAYORDER=
